<svg xmlns="http://www.w3.org/2000/svg" width="600" height="140" viewBox="0 0 600 140">
  <rect width="600" height="140" fill="#ffffff"/>
  <path d="M0 90 C40 50,90 50,130 90 C170 130,220 130,260 90 C300 50,350 50,390 90 C430 130,480 130,520 90 C550 62,570 62,600 90" stroke="#111a33" stroke-width="1.6" fill="none" opacity="0.55"/>
  <path d="M0 112 C40 76,90 76,130 112 C170 148,220 148,260 112 C300 76,350 76,390 112 C430 148,480 148,520 112 C550 86,570 86,600 112" stroke="#111a33" stroke-width="1.6" fill="none" opacity="0.35"/>
  <path d="M0 66 C40 30,90 30,130 66 C170 102,220 102,260 66 C300 30,350 30,390 66 C430 102,480 102,520 66 C550 40,570 40,600 66" stroke="#111a33" stroke-width="1.6" fill="none" opacity="0.25"/>
  <path d="M0 40 C40 14,90 14,130 40 C170 66,220 66,260 40 C300 14,350 14,390 40 C430 66,480 66,520 40 C550 22,570 22,600 40" stroke="#111a33" stroke-width="1.4" fill="none" opacity="0.15"/>
</svg>
