<svg width="30" height="30" viewBox="0 0 30 30" fill="none" xmlns="http://www.w3.org/2000/svg">
<path d="M4.00527 0.722461C3.61563 0.722461 3.32207 1.02363 3.32207 1.39043L3.31973 27.3123L3.3332 28.2064C3.33789 28.5223 3.5541 28.865 3.9332 28.865L22.4277 28.8691C22.7125 28.8691 22.8836 28.7332 23.0553 28.5434L23.5082 29.0168C23.2053 29.3824 22.8092 29.5324 22.3322 29.5324L3.89512 29.5213C3.25293 29.5213 2.69336 28.9236 2.69336 28.2885L2.69922 1.21523C2.69922 0.643945 3.28633 0.11543 3.76504 0.108398L5.58555 0.0820312L18.7334 0.084375L19.9738 0.101953L24.4574 4.65059L24.4539 19.609L23.8252 19.1074V5.15918L20.2064 5.15742C19.7764 5.05957 19.4688 4.73027 19.4459 4.29141V0.717187L4.00469 0.722461H4.00527ZM23.3816 4.49414L22.1025 3.16758L20.0898 1.13848L20.0711 4.19531C20.0822 4.37168 20.2135 4.51699 20.398 4.51582L23.3822 4.49473L23.3816 4.49414Z" fill="#BD1726"/>
<path d="M14.35 14.0803L5.57852 14.0773C5.20234 14.0773 4.74004 13.8453 4.74004 13.4082L4.73828 4.4C4.73828 4.025 5.13613 3.73438 5.48359 3.73438L14.5094 3.73906C14.8721 3.73906 15.2178 4.07949 15.2172 4.44746L15.2096 13.4158C15.2096 13.8477 14.7508 14.0809 14.35 14.0809V14.0803ZM14.5979 4.36719H5.35234V13.4504H14.5973V4.36719H14.5979Z" fill="#BD1726"/>
<path d="M26.9223 29.55C26.4202 30.0393 25.7042 30.0457 25.226 29.5377L23.4389 27.641L22.8747 26.966C20.9692 27.9598 18.6647 27.3633 17.4723 25.5803C16.5465 24.1963 16.519 22.391 17.3979 20.9684C18.2534 19.5762 19.7827 18.8203 21.4251 19.0037C23.4524 19.2299 25.0022 20.9449 25.11 22.9863C25.1557 23.8541 24.9366 24.6697 24.4889 25.4402C24.7725 25.5428 24.9471 25.7004 25.1334 25.899L26.9417 27.825C27.4221 28.3365 27.4409 29.0449 26.9235 29.5494L26.9223 29.55ZM24.4995 23.2113C24.4995 21.242 22.9034 19.6459 20.934 19.6459C18.9647 19.6459 17.3686 21.242 17.3686 23.2113C17.3686 25.1807 18.9647 26.7768 20.934 26.7768C22.9034 26.7768 24.4995 25.1807 24.4995 23.2113ZM26.5631 28.3752L24.5106 26.1826C24.4045 26.0689 24.2364 26.0396 24.0922 26.0039L23.4067 26.6525L25.7071 29.1117C25.918 29.3373 26.242 29.2939 26.4442 29.1176C26.6317 28.9541 26.7887 28.6166 26.5626 28.3752H26.5631Z" fill="#BD1726"/>
<path d="M22.1236 15.5371H4.82617V16.1857H22.1236V15.5371Z" fill="#BD1726"/>
<path d="M4.82249 17.5203L4.82227 18.1719L20.7146 18.1774L20.7149 17.5259L4.82249 17.5203Z" fill="#BD1726"/>
<path d="M15.5268 26.076H7.53112C7.34948 26.0766 7.2405 25.9605 7.2071 25.8223C7.1778 25.7021 7.22819 25.4654 7.39167 25.4619L9.10495 25.425L10.7831 25.4338L15.5585 25.4238C15.753 25.4238 15.8632 25.6037 15.8632 25.7473C15.8632 25.9277 15.7425 26.0771 15.5262 26.0771L15.5268 26.076Z" fill="#BD1726"/>
<path d="M15.6415 21.1816L7.43775 21.1863C7.26724 21.1863 7.20748 20.9918 7.20162 20.884C7.19459 20.7615 7.27017 20.5605 7.45006 20.5605L15.642 20.5635C15.7903 20.5635 15.8583 20.7539 15.8635 20.8436C15.8694 20.942 15.8336 21.1811 15.6415 21.1811V21.1816Z" fill="#BD1726"/>
<path d="M15.5049 23.6244L7.43714 23.6156C7.23733 23.6156 7.17405 23.3678 7.20452 23.243C7.24729 23.0666 7.3721 22.9863 7.57542 22.9863L15.6028 22.9939C15.7832 22.9939 15.8699 23.2025 15.8635 23.3156C15.853 23.4926 15.7528 23.625 15.5043 23.6244H15.5049Z" fill="#BD1726"/>
<path d="M21.8304 9.67012L16.8652 9.66074C16.69 9.66074 16.625 9.45391 16.6384 9.33086C16.6519 9.20781 16.7462 9.03906 16.915 9.03906H21.8896C22.066 9.03906 22.1732 9.23594 22.1627 9.36133C22.1492 9.52246 22.0461 9.67129 21.8304 9.6707V9.67012Z" fill="#BD1726"/>
<path d="M21.917 7.51738L16.8668 7.51621C16.711 7.51621 16.6301 7.29238 16.6371 7.18867C16.6459 7.06445 16.7414 6.88867 16.9067 6.88867H21.8983C22.0623 6.88867 22.1602 7.06504 22.169 7.18809C22.176 7.29121 22.0975 7.51738 21.917 7.51738Z" fill="#BD1726"/>
<path d="M21.8475 11.8027L16.9121 11.7992C16.7416 11.7992 16.6473 11.6264 16.6338 11.5016C16.6227 11.3961 16.7059 11.1758 16.8693 11.1758H21.9348C22.093 11.1752 22.1774 11.3984 22.1645 11.5016C22.1457 11.6486 22.0338 11.8027 21.8475 11.8027Z" fill="#BD1726"/>
<path d="M5.38546 25.0893C5.81085 24.9733 6.19347 25.2211 6.27784 25.6049C6.36456 25.9998 6.16886 26.3672 5.75225 26.4885C5.41593 26.5864 5.00753 26.3625 4.90089 25.9987C4.78897 25.6166 4.95714 25.2065 5.38546 25.0899V25.0893Z" fill="#BD1726"/>
<path d="M5.48234 20.1783C5.91593 20.1057 6.24289 20.4268 6.29152 20.793C6.34601 21.2043 6.08058 21.5383 5.67628 21.6062C5.31242 21.6672 4.93859 21.3859 4.87648 21.0232C4.8091 20.6289 5.04875 20.2516 5.48234 20.1789V20.1783Z" fill="#BD1726"/>
<path d="M5.58066 24.0539C5.97902 24.0539 6.30195 23.731 6.30195 23.3326C6.30195 22.9343 5.97902 22.6113 5.58066 22.6113C5.18231 22.6113 4.85938 22.9343 4.85938 23.3326C4.85938 23.731 5.18231 24.0539 5.58066 24.0539Z" fill="#BD1726"/>
<path d="M13.2321 8.69324V11.9317L13.8133 11.9581C13.9868 11.9663 14.0424 12.1696 14.009 12.3202C13.9791 12.4561 13.8602 12.5657 13.6797 12.5657L6.26235 12.568C6.07485 12.568 5.9436 12.51 5.89321 12.3565C5.84809 12.2182 5.88149 11.9786 6.05376 11.9669L6.66137 11.9253L6.65668 8.81219C6.65668 8.43894 6.28403 8.79168 6.08422 8.5157C6.02094 8.4284 5.97934 8.20926 6.10063 8.10965L9.68774 5.16062C9.78266 5.08211 9.9561 5.11726 10.0334 5.17703L11.3307 6.17605C11.3629 5.95984 11.2926 5.70847 11.4877 5.64402C11.7209 5.56668 12.0157 5.60887 12.2612 5.59363C12.7762 5.56199 12.454 6.42742 12.5817 7.14578L13.794 8.12195C13.8848 8.19519 13.8719 8.35808 13.8332 8.4448C13.7946 8.53152 13.7055 8.62058 13.5801 8.63992L13.2309 8.69324H13.2321ZM9.47036 9.28093C9.60161 9.31551 9.68071 9.40164 9.71528 9.5159L9.72524 11.9417H12.6561L12.6631 8.47117C12.6291 8.31297 12.676 8.18875 12.7832 8.09383L9.85239 5.80574L7.09848 8.06511L7.24028 8.26492L7.24204 11.9282L7.92348 11.9346V9.58738C7.92348 9.43914 8.01547 9.29031 8.17368 9.28972L9.46977 9.28152L9.47036 9.28093ZM9.19262 11.9212L9.18618 9.85633L8.45434 9.86043L8.46079 11.9253C8.72622 11.9528 8.94184 11.9669 9.19262 11.9212Z" fill="#BD1726"/>
<path d="M18.7509 23.9723C18.6231 23.8528 18.6811 23.6542 18.7573 23.5651C18.8716 23.4315 19.0831 23.384 19.2184 23.5106L20.1055 24.338L22.5132 21.6708C22.6614 21.5061 22.8846 21.5881 22.9802 21.7065C23.1325 21.8963 23.0546 22.0622 22.9151 22.2174L20.4794 24.9256C20.3276 25.0944 20.0921 25.2256 19.9011 25.0475L18.7503 23.9723H18.7509Z" fill="#BD1726"/>
<path d="M11.915 10.916L10.6301 10.9189C10.4631 10.9189 10.3131 10.8645 10.2715 10.6922L10.2756 8.82598C10.2938 8.6877 10.3957 8.58984 10.5357 8.58984L11.9889 8.59277C12.1014 8.59277 12.2068 8.69941 12.2068 8.81426L12.2033 10.6945C12.2033 10.8211 12.0434 10.916 11.915 10.916ZM11.6684 9.44121C11.748 9.39199 11.7346 9.17402 11.6971 9.08789L10.7859 9.09199C10.735 9.21387 10.732 9.40957 10.8152 9.47461C11.0865 9.47227 11.3906 9.51445 11.6684 9.44121ZM11.7059 10.3811C11.7311 10.1871 11.7252 10.1086 11.6965 9.9627L10.8199 10.0178C10.725 10.0236 10.7238 10.3646 10.8182 10.3799C11.1182 10.4285 11.4094 10.398 11.7059 10.3799V10.3811Z" fill="#BD1726"/>
</svg>
