<svg preserveAspectRatio="none" width="100%" height="100%" overflow="visible" style="display: block;" viewBox="0 0 72 72" fill="none" xmlns="http://www.w3.org/2000/svg">
<g id="Rectify Icon Set_Undermining Treatment 1" clip-path="url(#clip0_0_79)">
<path id="Vector" d="M1.08562 51.6094C0.712969 51.5798 0.489375 51.2705 0.475313 50.9513C0.46125 50.632 0.727031 50.3184 1.06453 50.2664C1.51172 50.1989 1.86188 50.5013 1.87734 50.895C1.89281 51.3155 1.58766 51.6488 1.08562 51.608V51.6094Z" fill="#BD1726"/>
<path id="Vector_2" d="M4.19484 56.0911C4.57307 56.0911 4.87969 55.7845 4.87969 55.4062C4.87969 55.028 4.57307 54.7214 4.19484 54.7214C3.81661 54.7214 3.51 55.028 3.51 55.4062C3.51 55.7845 3.81661 56.0911 4.19484 56.0911Z" fill="#BD1726"/>
<path id="Vector_3" d="M5.0175 50.1609C4.69406 50.0512 4.51969 49.7855 4.52672 49.5028C4.53375 49.1977 4.74328 48.9431 5.06391 48.8489C5.34516 48.7659 5.64047 48.8995 5.79516 49.0936C5.97797 49.3242 5.96813 49.6673 5.82188 49.8881C5.65875 50.1356 5.34234 50.2706 5.0175 50.1609Z" fill="#BD1726"/>
<path id="Vector_4" d="M10.7297 50.0752C11.111 50.0752 11.4202 49.766 11.4202 49.3847C11.4202 49.0034 11.111 48.6942 10.7297 48.6942C10.3484 48.6942 10.0392 49.0034 10.0392 49.3847C10.0392 49.766 10.3484 50.0752 10.7297 50.0752Z" fill="#BD1726"/>
<path id="Vector_5" d="M7.50516 53.1183C7.10156 53.0677 6.89344 52.7555 6.91031 52.4194C6.92719 52.0833 7.16625 51.8119 7.53328 51.7711C7.94391 51.7261 8.29547 52.0341 8.30813 52.4236C8.32078 52.8272 7.96922 53.1759 7.50516 53.1183Z" fill="#BD1726"/>
<path id="Vector_6" d="M11.932 57.3511C12.3118 57.3511 12.6197 57.0432 12.6197 56.6634C12.6197 56.2837 12.3118 55.9758 11.932 55.9758C11.5522 55.9758 11.2444 56.2837 11.2444 56.6634C11.2444 57.0432 11.5522 57.3511 11.932 57.3511Z" fill="#BD1726"/>
<path id="Vector_7" d="M70.3941 45.8944C70.5797 46.6945 70.4123 47.4173 69.8597 48.0375L71.8102 48.067C72.1842 48.0727 72.4373 48.413 72.4289 48.7434C72.4205 49.0739 72.1673 49.4002 71.7497 49.4002H44.0733L44.062 50.7291L44.0508 51.9427C44.048 52.3055 43.8961 52.5923 43.5037 52.7091V60.0708C43.7639 60.1088 43.9397 60.1453 44.0677 60.2789C44.1717 60.3886 44.287 60.6248 44.2223 60.8217L43.0186 64.5567C42.9272 64.8394 42.6937 64.9912 42.4336 64.9983C42.1608 65.0067 41.9006 64.89 41.8078 64.6045L40.5717 60.8273C40.4634 60.4955 40.7756 60.0722 41.3142 60.0708L41.3114 52.7062C40.9556 52.5811 40.7742 52.3392 40.7742 52.0059L40.777 49.2159C40.1977 48.8644 40.0683 49.4958 39.3469 49.4902C38.16 49.4817 37.0027 49.5478 35.813 49.6898L33.5812 50.1384L30.06 50.8753C29.2584 51.7261 28.3739 52.3856 27.322 52.8891C25.2098 53.8988 23.5097 54.2447 21.1627 54.0197C20.6128 53.9677 20.2387 53.6428 19.9969 53.1717C19.8872 52.9594 19.5989 52.8525 19.3992 52.747C18.1406 52.0889 16.8019 51.9609 15.5334 51.3478C13.7377 50.5181 12.6984 48.7195 12.5648 46.6987L6.60375 46.6889H5.92172L0.278437 46.6903C-0.126563 46.6903 -0.400781 46.3317 -0.424687 45.9998C-0.448594 45.668 -0.2025 45.2123 0.217969 45.2109L14.9878 45.1983C14.8739 44.73 15.1383 44.4066 15.3141 44.1323L15.3802 41.7108L14.632 41.6855C14.317 41.6756 13.9936 41.3578 13.9936 41.0119L13.9852 36.7214C13.9387 36.2039 14.3213 35.8594 14.8233 35.8594L17.4727 35.8552L17.4698 20.0067L16.2717 20.7253C15.9961 20.8898 15.7655 21.008 15.442 21.0994C14.5491 21.3525 13.4803 20.7703 13.4733 19.7831L13.4508 16.4306C13.4494 16.1283 13.6378 15.9483 13.8797 15.7922L34.418 2.51156C34.7906 2.27109 35.0662 2.27812 35.422 2.50594L43.7161 7.83844C43.8103 7.66125 43.8047 7.515 43.8047 7.35891L43.8075 4.00359C43.8075 3.52547 44.1534 3.20625 44.6273 3.20766L50.3241 3.21609C50.6531 3.26813 50.9709 3.54375 50.9723 3.91781L50.9808 12.51L56.1881 15.892C56.378 16.0158 56.4441 16.2225 56.4666 16.4306L56.4441 19.7944C56.4398 20.4736 55.8338 21.0206 55.1925 21.1345C54.6848 21.2245 54.2222 21.0741 53.8031 20.8209L52.4405 19.9955L52.4377 35.865L55.0884 35.8692C55.4625 35.8692 55.7719 36.0605 55.89 36.4247L55.8787 41.0948C55.8787 41.3747 55.575 41.67 55.3317 41.6812L54.5442 41.7164L54.5189 44.6316C54.5161 44.9747 54.1392 45.2334 53.813 45.2334L49.8966 45.2377C49.4648 45.2222 49.1723 44.8833 49.1723 44.4586V41.6967L45.2166 41.6981L45.2025 44.0592C45.1997 44.5387 44.775 44.8355 44.3081 44.7469C44.2069 44.7511 44.1127 44.7806 44.0705 44.8594C44.0452 44.9072 44.0494 45.0253 44.1183 45.0689L44.9958 44.9227L45.6356 44.9072C46.5356 44.8847 47.3639 45.0337 48.2048 45.3375L49.6463 45.8592C50.7923 46.2741 53.6428 46.2839 54.893 45.8691C55.8 45.5695 56.5566 44.9958 57.0094 44.1562C57.3187 43.5839 57.5142 42.9652 57.5227 42.3014L57.5648 38.9391C57.5859 37.3092 58.5084 36.0577 60.1608 35.9902L60.1931 35.01C60.21 34.5178 60.6853 34.1648 61.1705 34.162L62.6034 34.1522L62.6189 32.9344C62.6259 32.3733 63.1308 31.8923 63.7088 31.8923L67.3805 31.8966C67.7855 31.8966 68.2017 32.2341 68.2777 32.618L68.3212 34.1677C69.5109 34.0523 70.5473 34.7991 70.7231 35.9705V45.09C70.7245 45.4022 70.6416 45.6553 70.3912 45.8958L70.3941 45.8944ZM35.2659 6.85828L54.7819 19.4006L54.7959 17.0747L47.9447 12.6577L34.9284 4.31156L15.3942 16.9144C15.2353 16.9748 15.158 17.0466 15.1059 17.1886L15.1411 19.3978L20.8322 15.7233L34.5389 6.88641C34.778 6.73172 35.0142 6.75281 35.2645 6.85969L35.2659 6.85828ZM49.3327 11.4244L49.3439 4.84734H45.4641L45.4612 8.97047L49.3327 11.4244ZM31.2567 21.9811C31.7095 22.0908 31.9064 22.417 31.9064 22.8473V35.8748L50.7558 35.8692L50.7656 18.8831L45.7566 15.6684L34.9327 8.74406L22.6927 16.6148L19.1559 18.8789V35.872L22.6702 35.8692V22.7025C22.7616 22.223 23.1047 21.9755 23.5744 21.9755L31.2553 21.9825L31.2567 21.9811ZM24.307 23.5772L24.3042 35.8734H30.2681L30.2709 23.5772H24.307ZM64.0392 33.3211V34.1606H66.9066V33.3211H64.0392ZM69.3338 44.5472L69.3408 36.2841C69.3141 35.9128 69.0427 35.5725 68.6405 35.5725L61.5741 35.5627L61.5839 44.7652C62.7637 43.9537 64.2094 44.3377 64.8661 45.5358H66.3581C66.9952 44.4375 68.092 44.055 69.3352 44.5486L69.3338 44.5472ZM44.0311 47.7492C44.0184 47.8153 44.017 48.06 44.1267 48.06L61.3547 48.0558C60.8892 47.4272 60.6698 46.8352 60.7852 46.1236C60.4519 45.9323 60.2691 45.6736 60.1847 45.3333L60.1805 37.3148C59.3227 37.2867 58.8614 38.0362 58.8544 38.8772L58.8291 42.1284C58.8206 43.2408 58.4916 44.2912 57.8602 45.2053C56.2823 47.4891 53.588 47.5762 50.9625 47.4033C49.95 47.3358 49.0289 47.0573 48.0952 46.6805C46.8577 46.1813 45.5569 46.0252 44.2589 46.3556C43.8202 46.4667 44.183 46.9772 44.0311 47.7478V47.7492ZM54.2531 37.4822L15.6234 37.5019V40.0866L54.2545 40.0669V37.4822H54.2531ZM19.1222 43.5923L19.1405 41.7052H16.9453L16.9481 43.6205L19.1208 43.5923H19.1222ZM26.6836 51.7148C27.5245 51.3127 28.2459 50.8345 28.8773 50.1427C29.1277 49.8698 29.4623 49.6083 29.842 49.5436C31.2061 49.3073 32.5139 49.0345 33.847 48.6717L35.6878 48.3075C36.8564 48.1753 37.9941 48.0895 39.1697 48.1177C39.3736 48.1092 39.4875 48.0009 39.5859 47.8533C39.8517 47.4539 40.2609 47.2345 40.7742 47.2767V44.7877L40.372 44.7567C39.9487 44.8102 39.5902 44.505 39.5873 44.0789L39.5775 41.6953H20.7028L20.6691 44.6948C20.6648 45.0506 20.2092 45.2658 19.8956 45.2391L16.3505 45.2475C16.3505 45.5611 16.3645 45.817 16.2914 46.0856C16.1944 46.4428 15.8273 46.6411 15.4603 46.6692L14.6939 46.7255L13.943 46.6959C14.0063 47.8153 14.4563 48.9164 15.338 49.6505C15.8583 50.0836 16.4939 50.3367 17.1464 50.5181C18.1688 50.8008 19.1419 51.0933 20.0911 51.5602C20.6044 51.8133 21.0094 52.1409 21.2808 52.6556C23.182 52.9397 24.9877 52.5305 26.6822 51.7191L26.6836 51.7148ZM43.837 43.4166L43.8258 41.6995L40.9964 41.715V43.4236L43.837 43.4166ZM52.965 41.6939L50.7473 41.6967V43.6233L52.9678 43.6205V41.6939H52.965ZM41.9105 44.813L41.9077 51.6628H42.8963L42.8991 44.813H41.9105ZM68.3662 47.3414C68.8781 47.2964 69.1903 46.8956 69.1566 46.4611C69.1228 46.0266 68.8205 45.72 68.3705 45.6736C67.8642 45.6216 67.4606 46.0013 67.4269 46.4723C67.3917 46.9688 67.8192 47.3878 68.3662 47.3414ZM62.858 47.3484C63.3642 47.385 63.7509 47.0067 63.7833 46.5792C63.817 46.1306 63.495 45.7144 63.0225 45.6778C62.5148 45.637 62.0888 45.9703 62.0606 46.4583C62.0367 46.8759 62.3433 47.3119 62.8594 47.3484H62.858ZM66.7238 48.0473C66.4327 47.6381 66.2442 47.3991 66.1781 46.9842L65.0827 46.9702C64.9547 47.3456 64.8112 47.6508 64.5159 48.0164L66.7223 48.0459L66.7238 48.0473ZM42.5827 52.7611H42.2311V60.0961H42.5827V52.7611ZM43.0341 61.1241L41.7459 61.117L42.3942 63.1659L43.0341 61.1227V61.1241Z" fill="#BD1726"/>
<path id="Vector_8" d="M46.7381 32.0077L37.0266 32.002C36.7341 32.002 36.3488 31.6927 36.3488 31.3847L36.3445 22.4016C36.3445 22.0416 36.7439 21.7266 37.0828 21.728L46.7592 21.7364C47.108 21.7364 47.4427 22.133 47.4441 22.4634L47.4525 31.3186C47.3808 31.6898 47.1502 31.9416 46.7381 32.0063V32.0077ZM41.1047 23.3283H37.9575L37.9589 26.0606H41.1061L41.1047 23.3283ZM45.8198 23.3283H42.6994V26.0592H45.8198V23.3283ZM37.9603 27.668V30.3694H41.1061V27.668H37.9603ZM45.817 27.6694H42.6966L42.698 30.3722H45.8184L45.817 27.6694Z" fill="#BD1726"/>
<path id="Vector_9" d="M52.4053 66.6155C52.8722 66.7448 53.4206 66.6844 53.7609 66.3427C54.1856 65.9166 54.1505 65.2486 53.7834 64.7944C53.453 64.3866 52.9523 64.2361 52.4433 64.2572C52.0987 64.2712 51.8948 64.0195 51.8189 63.7228C51.705 63.2827 51.3141 63.0084 50.9541 62.9241C49.9486 62.6892 49.6406 63.5555 49.2131 63.5752C49.012 63.585 48.8377 63.5034 48.6872 63.36C48.0937 62.7919 47.1966 62.8903 46.7255 63.5555C46.6087 63.72 46.2994 63.758 46.1208 63.6834C45.6834 63.5006 45.2855 63.4472 44.82 63.4964C44.512 63.5287 44.2434 63.2475 44.2181 62.9972C44.1844 62.6695 44.3995 62.3925 44.7455 62.3489C45.2166 62.2884 45.6666 62.332 46.1489 62.4558C46.9716 61.6148 48.1669 61.6697 49.1386 62.1703C49.763 61.7737 50.5041 61.5277 51.3253 61.7414C51.9609 61.9073 52.4981 62.4094 52.9116 63.0253C53.4713 63.1927 54.1252 63.3319 54.5878 63.7931C55.3162 64.5187 55.5848 65.558 55.1587 66.5058C54.7608 67.3903 53.8369 67.9725 52.8033 67.8937C52.6683 67.8839 52.4306 67.8361 52.3139 67.9134C51.487 68.947 50.1778 69.1214 48.9586 68.7052C47.8477 69.5967 46.17 69.6234 44.9339 68.933C43.6106 69.8527 41.8866 69.9103 40.4761 69.0848C39.0178 69.84 37.298 69.7486 35.9677 68.7459C35.2547 69.1341 34.5431 69.2086 33.7795 69.1791C32.8373 69.1425 31.988 68.722 31.4662 67.9261C30.9797 67.9711 30.5634 67.9486 30.1444 67.8037C28.8872 67.3692 28.388 66.0052 28.9955 64.8155C29.4497 63.9281 30.3553 63.4064 31.4002 63.3178C31.8164 62.2941 32.7853 61.6275 33.9075 61.6753C34.5164 61.6627 35.0452 61.875 35.543 62.2153C36.54 61.5895 37.7423 61.6781 38.5861 62.4628C39.1261 62.3222 39.6577 62.2505 40.1667 62.37C40.4803 62.4445 40.6477 62.8186 40.5647 63.0731C40.4705 63.36 40.178 63.5414 39.8644 63.4908C38.8716 63.3277 38.4398 64.163 37.9027 63.4837C37.4372 62.8945 36.6005 62.8242 36.0492 63.3431C35.7272 63.6455 35.3123 63.6722 34.9917 63.3403C34.7077 63.0464 34.2661 62.8903 33.8456 62.8889C33.1987 62.8847 32.6503 63.3037 32.5027 63.9366C32.4239 64.2712 32.1961 64.5497 31.8052 64.5131C31.1231 64.4484 30.4636 64.7564 30.1303 65.3625C29.8631 65.8491 30.0417 66.4453 30.5775 66.6337C30.9122 66.7519 31.275 66.7617 31.6195 66.6689C31.9866 66.5705 32.3128 66.7448 32.4464 67.0922C32.8275 68.0878 34.5755 68.1792 35.5064 67.5731C35.9423 67.2891 36.27 67.3425 36.6412 67.6673C37.6186 68.5237 39.067 68.5209 40.1302 67.8234C40.4072 67.6406 40.6786 67.7208 40.9191 67.8853C42.0483 68.6559 43.4883 68.5702 44.5233 67.7025C44.7286 67.5309 45.0352 67.5577 45.2447 67.6898C45.81 68.0442 46.4302 68.2102 47.0995 68.1567C47.6747 68.1103 48.1148 67.8136 48.5353 67.4634C48.7884 67.2539 49.1316 67.4241 49.3917 67.5352C50.0991 67.8361 50.9977 67.7025 51.4195 67.0486C51.6516 66.69 51.9061 66.4748 52.4067 66.6141L52.4053 66.6155Z" fill="#BD1726"/>
<path id="Vector_10" d="M39.7673 58.9795L37.9266 56.5945C37.7564 56.8758 37.8942 57.2231 37.4611 57.3469C37.2727 57.4003 36.9534 57.3019 36.9394 57.0614L36.8255 55.1222C36.8128 54.9169 36.8114 54.7538 36.9492 54.63C37.1123 54.4838 37.2923 54.5147 37.5061 54.5737L39.1514 55.0238C39.3806 55.087 39.5494 55.1756 39.6169 55.388C39.6844 55.6003 39.5873 55.7873 39.4383 55.9111C39.2245 56.0883 39.0811 55.98 38.7084 55.9209L40.4156 58.1752C40.5928 58.4086 40.6842 58.6575 40.5 58.905C40.3805 59.0653 39.9516 59.2158 39.7687 58.9795H39.7673Z" fill="#BD1726"/>
<path id="Vector_11" d="M46.9153 56.5636L45.18 58.8417C44.9972 59.0822 44.7581 59.1736 44.4656 59.0302C44.2702 58.9345 44.1 58.6083 44.2786 58.3734L46.1391 55.9336C45.8339 55.9083 45.6652 56.0742 45.4978 55.987C45.2714 55.8689 45.1772 55.71 45.2081 55.4653C45.2363 55.253 45.3937 55.1208 45.6314 55.0547L47.5087 54.5316C47.6705 54.4866 47.8181 54.5611 47.9025 54.6553C48.0066 54.7706 48.0009 54.9141 47.9953 55.08L47.9208 56.977C47.9109 57.2456 47.61 57.3975 47.3991 57.3567C46.8872 57.2611 47.0925 56.8266 46.9167 56.5608L46.9153 56.5636Z" fill="#BD1726"/>
<path id="Vector_12" d="M37.0477 61.1184L34.6106 59.4633C34.5656 59.618 34.6556 59.7206 34.6866 59.8331C34.7597 60.0989 34.6387 60.3591 34.4039 60.4406C34.155 60.5278 33.8766 60.4041 33.7838 60.1312L33.1256 58.1977C33.0455 57.9614 33.2227 57.6942 33.4786 57.6928L35.6175 57.6787C35.8256 57.6787 35.9494 57.9136 35.9648 58.0711C35.9859 58.2792 35.858 58.5112 35.6344 58.5422L35.1366 58.6111L37.6087 60.2944C37.8211 60.4392 37.8056 60.7458 37.6777 60.9469C37.5778 61.103 37.2881 61.2802 37.0477 61.117V61.1184Z" fill="#BD1726"/>
<path id="Vector_13" d="M50.0892 59.9653C50.13 59.7895 50.2411 59.6447 50.2116 59.4464L47.6944 61.1437C47.4792 61.2886 47.1867 61.0678 47.1136 60.9145C46.9927 60.6628 47.0503 60.4027 47.2823 60.2423L49.5844 58.6589C49.4283 58.493 48.9403 58.6659 48.8602 58.1653C48.8222 57.9262 49.0317 57.6534 49.3088 57.6591L51.3914 57.697C51.5559 57.6998 51.6558 57.8461 51.705 57.9417C51.7852 58.0978 51.7233 58.2075 51.6656 58.365L51.0384 60.0862C50.9527 60.3211 50.7811 60.4744 50.5491 60.4673C50.3002 60.4589 50.0963 60.2859 50.0892 59.9667V59.9653Z" fill="#BD1726"/>
<path id="Vector_14" d="M70.3659 54.63C70.0003 54.6905 69.7036 54.4964 69.5742 54.1828C69.4448 53.8692 69.5911 53.5078 69.9173 53.3405C70.3069 53.1408 70.74 53.325 70.9017 53.7145C71.0522 54.0773 70.7934 54.5597 70.3645 54.63H70.3659Z" fill="#BD1726"/>
<path id="Vector_15" d="M15.937 55.5806C16.3207 55.5806 16.6317 55.2696 16.6317 54.8859C16.6317 54.5023 16.3207 54.1912 15.937 54.1912C15.5534 54.1912 15.2423 54.5023 15.2423 54.8859C15.2423 55.2696 15.5534 55.5806 15.937 55.5806Z" fill="#BD1726"/>
<path id="Vector_16" d="M67.0078 57.2653C67.4212 57.15 67.7784 57.3708 67.8909 57.728C68.0034 58.0894 67.7841 58.4536 67.41 58.5802C67.0852 58.6913 66.7055 58.507 66.5747 58.1822C66.4284 57.8208 66.5916 57.3806 67.0092 57.2639L67.0078 57.2653Z" fill="#BD1726"/>
<path id="Vector_17" d="M24.8147 56.6733C25.1976 56.6733 25.508 56.3629 25.508 55.98C25.508 55.5971 25.1976 55.2867 24.8147 55.2867C24.4318 55.2867 24.1214 55.5971 24.1214 55.98C24.1214 56.3629 24.4318 56.6733 24.8147 56.6733Z" fill="#BD1726"/>
<path id="Vector_18" d="M53.6752 54.1069C54.0596 54.1069 54.3713 53.7952 54.3713 53.4108C54.3713 53.0263 54.0596 52.7147 53.6752 52.7147C53.2907 52.7147 52.9791 53.0263 52.9791 53.4108C52.9791 53.7952 53.2907 54.1069 53.6752 54.1069Z" fill="#BD1726"/>
<path id="Vector_19" d="M31.898 53.3897C32.2816 53.3897 32.5927 53.0787 32.5927 52.695C32.5927 52.3113 32.2816 52.0003 31.898 52.0003C31.5143 52.0003 31.2033 52.3113 31.2033 52.695C31.2033 53.0787 31.5143 53.3897 31.898 53.3897Z" fill="#BD1726"/>
<path id="Vector_20" d="M66.0375 52.7878C66.4196 52.7878 66.7294 52.478 66.7294 52.0959C66.7294 51.7138 66.4196 51.4041 66.0375 51.4041C65.6554 51.4041 65.3456 51.7138 65.3456 52.0959C65.3456 52.478 65.6554 52.7878 66.0375 52.7878Z" fill="#BD1726"/>
<path id="Vector_21" d="M61.7583 54.2897C62.1577 54.1772 62.5106 54.4233 62.6175 54.7706C62.7244 55.118 62.4853 55.4991 62.1464 55.6073C61.7892 55.7212 61.4208 55.5187 61.3013 55.208C61.1536 54.8241 61.3308 54.4106 61.7569 54.2911L61.7583 54.2897Z" fill="#BD1726"/>
<path id="Vector_22" d="M29.8153 56.5397C29.3667 56.5411 29.0897 56.1403 29.1333 55.7859C29.1867 55.35 29.5959 55.0997 30.0263 55.2066C30.382 55.2952 30.5536 55.6102 30.5114 55.9547C30.4734 56.2655 30.2133 56.5383 29.8139 56.5397H29.8153Z" fill="#BD1726"/>
<path id="Vector_23" d="M49.282 52.3308C49.6626 52.3308 49.9711 52.0223 49.9711 51.6417C49.9711 51.2612 49.6626 50.9527 49.282 50.9527C48.9015 50.9527 48.593 51.2612 48.593 51.6417C48.593 52.0223 48.9015 52.3308 49.282 52.3308Z" fill="#BD1726"/>
<path id="Vector_24" d="M59.7488 52.6795C59.2805 52.7442 58.943 52.4292 58.9289 52.0355C58.9148 51.6206 59.2608 51.2958 59.7136 51.3366C60.0609 51.3689 60.3 51.6558 60.3169 51.9792C60.3338 52.3027 60.1242 52.6261 59.7473 52.6781L59.7488 52.6795Z" fill="#BD1726"/>
<path id="Vector_25" d="M57.3806 55.9969C57.7758 55.9111 58.1189 56.1937 58.1948 56.5298C58.275 56.8898 58.0036 57.2555 57.6689 57.337C57.3061 57.4256 56.9447 57.1908 56.8575 56.8744C56.7492 56.4862 56.9447 56.0897 57.3806 55.9955V55.9969Z" fill="#BD1726"/>
<path id="Vector_26" d="M19.7733 57.517C20.1783 57.4523 20.5031 57.7477 20.5523 58.0781C20.61 58.4663 20.347 58.8094 19.9659 58.8698C19.6242 58.9247 19.2783 58.6814 19.1953 58.3355C19.1123 57.9895 19.3472 57.5845 19.7733 57.517Z" fill="#BD1726"/>
<path id="Vector_27" d="M37.2052 52.7231C36.8972 52.8623 36.5977 52.7878 36.405 52.5825C36.2123 52.3772 36.1645 52.0622 36.2911 51.8119C36.4177 51.5616 36.6989 51.4083 37.0139 51.4462C37.3289 51.4842 37.5637 51.7078 37.6045 51.9989C37.6453 52.29 37.5159 52.5825 37.2052 52.7231Z" fill="#BD1726"/>
<path id="Vector_28" d="M67.583 42.262H63.3066C62.9691 42.1495 62.7708 41.9006 62.7834 41.5702C62.7933 41.303 63.0211 40.9669 63.3642 40.9669L67.5605 40.9627C67.9261 40.9627 68.168 41.2678 68.1778 41.5758C68.1905 41.9203 67.9823 42.1833 67.583 42.262Z" fill="#BD1726"/>
<path id="Vector_29" d="M67.4859 39.6689L63.2883 39.6478C62.9761 39.6464 62.7877 39.2808 62.7848 39.0361C62.782 38.7914 62.9691 38.4145 63.2897 38.4131L67.6364 38.4075C67.9964 38.4075 68.213 38.797 68.1764 39.0811C68.1328 39.4228 67.8853 39.6717 67.4859 39.6689Z" fill="#BD1726"/>
</g>
<defs>
<clipPath id="clip0_0_79">
<rect width="72" height="72" fill="white"/>
</clipPath>
</defs>
</svg>
